<?xml version="1.0" standalone="no"?>
<!DOCTYPE svg PUBLIC "-//W3C//DTD SVG 20010904//EN"
 "http://www.w3.org/TR/2001/REC-SVG-20010904/DTD/svg10.dtd">
<svg version="1.0" xmlns="http://www.w3.org/2000/svg"
 width="1024.000000pt" height="1024.000000pt" viewBox="0 0 1024.000000 1024.000000"
 preserveAspectRatio="xMidYMid meet">
<metadata>
Created by potrace 1.11, written by Peter Selinger 2001-2013
</metadata>
<g transform="translate(0.000000,1024.000000) scale(0.100000,-0.100000)"
fill="#000000" stroke="none">
<path d="M1842 6343 c1 -483 5 -916 10 -963 75 -741 632 -1345 1363 -1481 39
-7 72 -14 74 -15 2 -2 -22 -31 -54 -66 -117 -129 -227 -335 -250 -470 -3 -17
-8 -34 -10 -38 -15 -24 -19 -153 -22 -722 l-4 -637 600 1 c634 1 696 4 846 50
62 18 169 66 260 115 72 38 221 170 284 251 l34 44 25 -34 c14 -18 55 -62 91
-98 153 -151 332 -250 548 -302 84 -20 119 -21 725 -25 l638 -3 -1 608 c-1
540 -3 620 -19 708 -39 214 -137 413 -279 567 -24 26 -42 49 -40 51 2 3 24 7
49 11 71 10 228 53 315 86 324 125 603 348 798 637 105 155 212 405 243 567
38 195 37 172 38 1118 l2 917 -905 -1 c-511 0 -932 -5 -966 -10 -33 -5 -75
-12 -94 -14 -246 -37 -555 -177 -766 -349 -130 -106 -278 -271 -360 -404 -21
-34 -39 -62 -40 -62 -2 0 -22 30 -46 67 -245 378 -628 644 -1054 733 -49 11
-103 22 -120 26 -16 4 -454 9 -972 11 l-941 4 0 -878z m1853 423 c17 -3 63
-13 104 -22 157 -34 333 -118 480 -228 8 -6 58 -54 111 -106 187 -185 306
-413 345 -665 4 -22 8 -53 11 -70 4 -23 8 -1261 5 -1348 -1 -17 -34 -18 -658
-16 -362 0 -685 5 -718 10 -33 5 -71 11 -85 13 -199 29 -462 164 -622 320 -63
62 -178 198 -178 211 0 4 -13 25 -28 48 -66 97 -140 295 -157 417 -3 25 -9 54
-12 65 -7 22 -12 1365 -6 1378 5 9 1365 3 1408 -7z m3967 1 c7 -22 1 -1322 -6
-1362 -4 -22 -9 -55 -12 -72 -11 -81 -48 -198 -96 -303 -115 -251 -321 -463
-566 -585 -124 -61 -218 -91 -378 -122 -56 -11 -1397 -15 -1403 -4 -8 13 -6
1326 2 1366 4 17 9 48 11 70 10 79 58 222 111 331 179 368 532 624 935 678
133 18 1397 21 1402 3z m-2917 -3016 c7 -1 9 -131 8 -372 -2 -425 -8 -472 -75
-609 -58 -118 -179 -239 -293 -295 -159 -77 -169 -78 -618 -80 l-378 -2 4 396
c2 218 6 407 10 420 26 97 74 207 114 261 39 53 144 149 202 185 149 90 221
101 663 99 194 -1 358 -2 363 -3z m1267 -10 c214 -51 377 -177 469 -361 68
-136 72 -167 74 -597 1 -265 -2 -383 -9 -386 -29 -10 -746 0 -804 12 -262 51
-483 272 -533 533 -8 41 -13 190 -14 433 -1 204 0 372 1 375 5 11 769 3 816
-9z"/>
</g>
</svg>
